<?xml version="1.0" encoding="UTF-8" standalone="no"?>
<!DOCTYPE svg PUBLIC "-//W3C//DTD SVG 1.1//EN"
 "http://www.w3.org/Graphics/SVG/1.1/DTD/svg11.dtd">
<!-- Generated by graphviz version 2.40.1 (20161225.0304)
 -->
<!-- Title: dependencies Pages: 1 -->
<svg width="1038pt" height="211pt"
 viewBox="0.00 0.00 1038.00 211.00" xmlns="http://www.w3.org/2000/svg" xmlns:xlink="http://www.w3.org/1999/xlink">
<g id="graph0" class="graph" transform="scale(1 1) rotate(0) translate(4 207)">
<title>dependencies</title>
<polygon fill="#ffffff" stroke="transparent" points="-4,4 -4,-207 1034,-207 1034,4 -4,4"/>
<text text-anchor="start" x="494.0091" y="-42.4" font-family="sans-serif" font-weight="bold" font-size="14.00" fill="#000000">Legend</text>
<polygon fill="#ffffb3" stroke="transparent" points="281,-10 281,-30 301,-30 301,-10 281,-10"/>
<text text-anchor="start" x="304.629" y="-15.4" font-family="sans-serif" font-size="14.00" fill="#000000"> &#160;Declarations</text>
<polygon fill="#8dd3c7" stroke="transparent" points="394,-10 394,-30 414,-30 414,-10 394,-10"/>
<text text-anchor="start" x="417.7251" y="-15.4" font-family="sans-serif" font-size="14.00" fill="#000000"> &#160;Module</text>
<polygon fill="#80b1d3" stroke="transparent" points="480,-10 480,-30 500,-30 500,-10 480,-10"/>
<text text-anchor="start" x="503.7812" y="-15.4" font-family="sans-serif" font-size="14.00" fill="#000000"> &#160;Bootstrap</text>
<polygon fill="#fdb462" stroke="transparent" points="577,-10 577,-30 597,-30 597,-10 577,-10"/>
<text text-anchor="start" x="600.6732" y="-15.4" font-family="sans-serif" font-size="14.00" fill="#000000"> &#160;Providers</text>
<polygon fill="#fb8072" stroke="transparent" points="673,-10 673,-30 693,-30 693,-10 673,-10"/>
<text text-anchor="start" x="696.7258" y="-15.4" font-family="sans-serif" font-size="14.00" fill="#000000"> &#160;Exports</text>
<g id="clust1" class="cluster">
<title>cluster_UserModule</title>
<polygon fill="none" stroke="#000000" stroke-dasharray="1,5" points="8,-70 8,-195 1022,-195 1022,-70 8,-70"/>
</g>
<g id="clust2" class="cluster">
<title>cluster_UserModule_declarations</title>
<polygon fill="none" stroke="#000000" points="16,-78 16,-130 1014,-130 1014,-78 16,-78"/>
</g>
<!-- FlightListComponent -->
<g id="node1" class="node">
<title>FlightListComponent</title>
<polygon fill="#ffffb3" stroke="#000000" points="1006.0659,-122 869.9341,-122 869.9341,-86 1006.0659,-86 1006.0659,-122"/>
<text text-anchor="middle" x="938" y="-99.8" font-family="Times,serif" font-size="14.00" fill="#000000">FlightListComponent</text>
</g>
<!-- UserModule -->
<g id="node7" class="node">
<title>UserModule</title>
<polygon fill="#8dd3c7" stroke="#000000" points="581.9762,-187 578.9762,-191 557.9762,-191 554.9762,-187 496.0238,-187 496.0238,-151 581.9762,-151 581.9762,-187"/>
<text text-anchor="middle" x="539" y="-164.8" font-family="Times,serif" font-size="14.00" fill="#000000">UserModule</text>
</g>
<!-- FlightListComponent&#45;&gt;UserModule -->
<g id="edge1" class="edge">
<title>FlightListComponent&#45;&gt;UserModule</title>
<path fill="none" stroke="#000000" d="M938,-122.2843C938,-143.3211 938,-175 938,-175 938,-175 592.0791,-175 592.0791,-175"/>
<polygon fill="#000000" stroke="#000000" points="592.0791,-171.5001 582.0791,-175 592.0791,-178.5001 592.0791,-171.5001"/>
</g>
<!-- LoginComponent -->
<g id="node2" class="node">
<title>LoginComponent</title>
<polygon fill="#ffffb3" stroke="#000000" points="851.2758,-122 736.7242,-122 736.7242,-86 851.2758,-86 851.2758,-122"/>
<text text-anchor="middle" x="794" y="-99.8" font-family="Times,serif" font-size="14.00" fill="#000000">LoginComponent</text>
</g>
<!-- LoginComponent&#45;&gt;UserModule -->
<g id="edge2" class="edge">
<title>LoginComponent&#45;&gt;UserModule</title>
<path fill="none" stroke="#000000" d="M794,-122.0225C794,-139.3734 794,-163 794,-163 794,-163 592.2573,-163 592.2573,-163"/>
<polygon fill="#000000" stroke="#000000" points="592.2573,-159.5001 582.2573,-163 592.2572,-166.5001 592.2573,-159.5001"/>
</g>
<!-- PassengerDetailsComponent -->
<g id="node3" class="node">
<title>PassengerDetailsComponent</title>
<polygon fill="#ffffb3" stroke="#000000" points="718.4608,-122 541.5392,-122 541.5392,-86 718.4608,-86 718.4608,-122"/>
<text text-anchor="middle" x="630" y="-99.8" font-family="Times,serif" font-size="14.00" fill="#000000">PassengerDetailsComponent</text>
</g>
<!-- PassengerDetailsComponent&#45;&gt;UserModule -->
<g id="edge3" class="edge">
<title>PassengerDetailsComponent&#45;&gt;UserModule</title>
<path fill="none" stroke="#000000" d="M561.7539,-122.1061C561.7539,-122.1061 561.7539,-140.991 561.7539,-140.991"/>
<polygon fill="#000000" stroke="#000000" points="558.2539,-140.9909 561.7539,-150.991 565.2539,-140.991 558.2539,-140.9909"/>
</g>
<!-- RegistrationComponent -->
<g id="node4" class="node">
<title>RegistrationComponent</title>
<polygon fill="#ffffb3" stroke="#000000" points="523.766,-122 374.234,-122 374.234,-86 523.766,-86 523.766,-122"/>
<text text-anchor="middle" x="449" y="-99.8" font-family="Times,serif" font-size="14.00" fill="#000000">RegistrationComponent</text>
</g>
<!-- RegistrationComponent&#45;&gt;UserModule -->
<g id="edge4" class="edge">
<title>RegistrationComponent&#45;&gt;UserModule</title>
<path fill="none" stroke="#000000" d="M509.9474,-122.1061C509.9474,-122.1061 509.9474,-140.991 509.9474,-140.991"/>
<polygon fill="#000000" stroke="#000000" points="506.4475,-140.9909 509.9474,-150.991 513.4475,-140.991 506.4475,-140.9909"/>
</g>
<!-- ReviewBookingComponent -->
<g id="node5" class="node">
<title>ReviewBookingComponent</title>
<polygon fill="#ffffb3" stroke="#000000" points="356.3229,-122 183.6771,-122 183.6771,-86 356.3229,-86 356.3229,-122"/>
<text text-anchor="middle" x="270" y="-99.8" font-family="Times,serif" font-size="14.00" fill="#000000">ReviewBookingComponent</text>
</g>
<!-- ReviewBookingComponent&#45;&gt;UserModule -->
<g id="edge5" class="edge">
<title>ReviewBookingComponent&#45;&gt;UserModule</title>
<path fill="none" stroke="#000000" d="M270,-122.0225C270,-139.3734 270,-163 270,-163 270,-163 485.7805,-163 485.7805,-163"/>
<polygon fill="#000000" stroke="#000000" points="485.7805,-166.5001 495.7805,-163 485.7805,-159.5001 485.7805,-166.5001"/>
</g>
<!-- SearchListComponent -->
<g id="node6" class="node">
<title>SearchListComponent</title>
<polygon fill="#ffffb3" stroke="#000000" points="165.6979,-122 24.3021,-122 24.3021,-86 165.6979,-86 165.6979,-122"/>
<text text-anchor="middle" x="95" y="-99.8" font-family="Times,serif" font-size="14.00" fill="#000000">SearchListComponent</text>
</g>
<!-- SearchListComponent&#45;&gt;UserModule -->
<g id="edge6" class="edge">
<title>SearchListComponent&#45;&gt;UserModule</title>
<path fill="none" stroke="#000000" d="M95,-122.2843C95,-143.3211 95,-175 95,-175 95,-175 485.619,-175 485.619,-175"/>
<polygon fill="#000000" stroke="#000000" points="485.619,-178.5001 495.619,-175 485.619,-171.5001 485.619,-178.5001"/>
</g>
</g>
</svg>
