<?xml version="1.0" encoding="UTF-8" standalone="no"?>
<!DOCTYPE svg PUBLIC "-//W3C//DTD SVG 1.1//EN"
 "http://www.w3.org/Graphics/SVG/1.1/DTD/svg11.dtd">
<!-- Generated by graphviz version 2.40.1 (20161225.0304)
 -->
<!-- Title: dependencies Pages: 1 -->
<svg width="3835pt" height="284pt"
 viewBox="0.00 0.00 3835.00 284.00" xmlns="http://www.w3.org/2000/svg" xmlns:xlink="http://www.w3.org/1999/xlink">
<g id="graph0" class="graph" transform="scale(1 1) rotate(0) translate(4 280)">
<title>dependencies</title>
<polygon fill="#ffffff" stroke="transparent" points="-4,4 -4,-280 3831,-280 3831,4 -4,4"/>
<text text-anchor="start" x="1892.5091" y="-42.4" font-family="sans-serif" font-weight="bold" font-size="14.00" fill="#000000">Legend</text>
<polygon fill="#ffffb3" stroke="transparent" points="1679.5,-10 1679.5,-30 1699.5,-30 1699.5,-10 1679.5,-10"/>
<text text-anchor="start" x="1703.129" y="-15.4" font-family="sans-serif" font-size="14.00" fill="#000000"> &#160;Declarations</text>
<polygon fill="#8dd3c7" stroke="transparent" points="1792.5,-10 1792.5,-30 1812.5,-30 1812.5,-10 1792.5,-10"/>
<text text-anchor="start" x="1816.2251" y="-15.4" font-family="sans-serif" font-size="14.00" fill="#000000"> &#160;Module</text>
<polygon fill="#80b1d3" stroke="transparent" points="1878.5,-10 1878.5,-30 1898.5,-30 1898.5,-10 1878.5,-10"/>
<text text-anchor="start" x="1902.2812" y="-15.4" font-family="sans-serif" font-size="14.00" fill="#000000"> &#160;Bootstrap</text>
<polygon fill="#fdb462" stroke="transparent" points="1975.5,-10 1975.5,-30 1995.5,-30 1995.5,-10 1975.5,-10"/>
<text text-anchor="start" x="1999.1732" y="-15.4" font-family="sans-serif" font-size="14.00" fill="#000000"> &#160;Providers</text>
<polygon fill="#fb8072" stroke="transparent" points="2071.5,-10 2071.5,-30 2091.5,-30 2091.5,-10 2071.5,-10"/>
<text text-anchor="start" x="2095.2258" y="-15.4" font-family="sans-serif" font-size="14.00" fill="#000000"> &#160;Exports</text>
<g id="clust1" class="cluster">
<title>cluster_AppModule</title>
<polygon fill="none" stroke="#000000" stroke-dasharray="1,5" points="8,-70 8,-268 3819,-268 3819,-70 8,-70"/>
</g>
<g id="clust2" class="cluster">
<title>cluster_AppModule_declarations</title>
<polygon fill="none" stroke="#000000" points="168,-78 168,-130 3811,-130 3811,-78 168,-78"/>
</g>
<g id="clust26" class="cluster">
<title>cluster_AppModule_imports</title>
<polygon fill="none" stroke="#000000" points="16,-78 16,-130 160,-130 160,-78 16,-78"/>
</g>
<g id="clust28" class="cluster">
<title>cluster_AppModule_bootstrap</title>
<polygon fill="none" stroke="#000000" points="1844,-208 1844,-260 1968,-260 1968,-208 1844,-208"/>
</g>
<!-- AddnewflightComponent -->
<g id="node1" class="node">
<title>AddnewflightComponent</title>
<polygon fill="#ffffb3" stroke="#000000" points="3802.5926,-122 3643.4074,-122 3643.4074,-86 3802.5926,-86 3802.5926,-122"/>
<text text-anchor="middle" x="3723" y="-99.8" font-family="Times,serif" font-size="14.00" fill="#000000">AddnewflightComponent</text>
</g>
<!-- AppModule -->
<g id="node24" class="node">
<title>AppModule</title>
<polygon fill="#8dd3c7" stroke="#000000" points="1947.6571,-187 1944.6571,-191 1923.6571,-191 1920.6571,-187 1864.3429,-187 1864.3429,-151 1947.6571,-151 1947.6571,-187"/>
<text text-anchor="middle" x="1906" y="-164.8" font-family="Times,serif" font-size="14.00" fill="#000000">AppModule</text>
</g>
<!-- AddnewflightComponent&#45;&gt;AppModule -->
<g id="edge1" class="edge">
<title>AddnewflightComponent&#45;&gt;AppModule</title>
<path fill="none" stroke="#000000" d="M3749.5154,-122.3802C3749.5154,-146.2785 3749.5154,-185 3749.5154,-185 3749.5154,-185 1957.9681,-185 1957.9681,-185"/>
<polygon fill="#000000" stroke="#000000" points="1957.9682,-181.5001 1947.9681,-185 1957.9681,-188.5001 1957.9682,-181.5001"/>
</g>
<!-- AddnewflightComponent&#45;&gt;AppModule -->
<g id="edge2" class="edge">
<title>AddnewflightComponent&#45;&gt;AppModule</title>
<path fill="none" stroke="#000000" d="M3696.4846,-122.3228C3696.4846,-145.6602 3696.4846,-183 3696.4846,-183 3696.4846,-183 1958.0571,-183 1958.0571,-183"/>
<polygon fill="#000000" stroke="#000000" points="1958.0572,-179.5001 1948.0571,-183 1958.0571,-186.5001 1958.0572,-179.5001"/>
</g>
<!-- AdminFlightlistComponent -->
<g id="node2" class="node">
<title>AdminFlightlistComponent</title>
<polygon fill="#ffffb3" stroke="#000000" points="3625.2911,-122 3454.7089,-122 3454.7089,-86 3625.2911,-86 3625.2911,-122"/>
<text text-anchor="middle" x="3540" y="-99.8" font-family="Times,serif" font-size="14.00" fill="#000000">AdminFlightlistComponent</text>
</g>
<!-- AdminFlightlistComponent&#45;&gt;AppModule -->
<g id="edge3" class="edge">
<title>AdminFlightlistComponent&#45;&gt;AppModule</title>
<path fill="none" stroke="#000000" d="M3540,-122.0109C3540,-144.4852 3540,-180 3540,-180 3540,-180 1958.0333,-180 1958.0333,-180"/>
<polygon fill="#000000" stroke="#000000" points="1958.0333,-176.5001 1948.0333,-180 1958.0332,-183.5001 1958.0333,-176.5001"/>
</g>
<!-- AdminhomeComponent -->
<g id="node3" class="node">
<title>AdminhomeComponent</title>
<polygon fill="#ffffb3" stroke="#000000" points="3436.8258,-122 3285.1742,-122 3285.1742,-86 3436.8258,-86 3436.8258,-122"/>
<text text-anchor="middle" x="3361" y="-99.8" font-family="Times,serif" font-size="14.00" fill="#000000">AdminhomeComponent</text>
</g>
<!-- AdminhomeComponent&#45;&gt;AppModule -->
<g id="edge4" class="edge">
<title>AdminhomeComponent&#45;&gt;AppModule</title>
<path fill="none" stroke="#000000" d="M3361,-122.2921C3361,-144.2057 3361,-178 3361,-178 3361,-178 1957.9762,-178 1957.9762,-178"/>
<polygon fill="#000000" stroke="#000000" points="1957.9762,-174.5001 1947.9762,-178 1957.9761,-181.5001 1957.9762,-174.5001"/>
</g>
<!-- AirlineComponent -->
<g id="node4" class="node">
<title>AirlineComponent</title>
<polygon fill="#ffffb3" stroke="#000000" points="3267.486,-122 3146.514,-122 3146.514,-86 3267.486,-86 3267.486,-122"/>
<text text-anchor="middle" x="3207" y="-99.8" font-family="Times,serif" font-size="14.00" fill="#000000">AirlineComponent</text>
</g>
<!-- AirlineComponent&#45;&gt;AppModule -->
<g id="edge5" class="edge">
<title>AirlineComponent&#45;&gt;AppModule</title>
<path fill="none" stroke="#000000" d="M3207,-122.2843C3207,-143.3211 3207,-175 3207,-175 3207,-175 1957.8131,-175 1957.8131,-175"/>
<polygon fill="#000000" stroke="#000000" points="1957.8131,-171.5001 1947.8131,-175 1957.8131,-178.5001 1957.8131,-171.5001"/>
</g>
<!-- AirlinelistcomponentComponent -->
<g id="node5" class="node">
<title>AirlinelistcomponentComponent</title>
<polygon fill="#ffffb3" stroke="#000000" points="3128.313,-122 2927.687,-122 2927.687,-86 3128.313,-86 3128.313,-122"/>
<text text-anchor="middle" x="3028" y="-99.8" font-family="Times,serif" font-size="14.00" fill="#000000">AirlinelistcomponentComponent</text>
</g>
<!-- AirlinelistcomponentComponent&#45;&gt;AppModule -->
<g id="edge6" class="edge">
<title>AirlinelistcomponentComponent&#45;&gt;AppModule</title>
<path fill="none" stroke="#000000" d="M3028,-122.1289C3028,-142.5724 3028,-173 3028,-173 3028,-173 1957.936,-173 1957.936,-173"/>
<polygon fill="#000000" stroke="#000000" points="1957.936,-169.5001 1947.936,-173 1957.9359,-176.5001 1957.936,-169.5001"/>
</g>
<!-- AppComponent -->
<g id="node6" class="node">
<title>AppComponent</title>
<polygon fill="#ffffb3" stroke="#000000" points="2909.9399,-122 2804.0601,-122 2804.0601,-86 2909.9399,-86 2909.9399,-122"/>
<text text-anchor="middle" x="2857" y="-99.8" font-family="Times,serif" font-size="14.00" fill="#000000">AppComponent</text>
</g>
<!-- AppComponent&#45;&gt;AppModule -->
<g id="edge7" class="edge">
<title>AppComponent&#45;&gt;AppModule</title>
<path fill="none" stroke="#000000" d="M2857,-122.308C2857,-142.1455 2857,-171 2857,-171 2857,-171 1957.7821,-171 1957.7821,-171"/>
<polygon fill="#000000" stroke="#000000" points="1957.7821,-167.5001 1947.7821,-171 1957.782,-174.5001 1957.7821,-167.5001"/>
</g>
<!-- CityComponent -->
<g id="node7" class="node">
<title>CityComponent</title>
<polygon fill="#ffffb3" stroke="#000000" points="2786.9512,-122 2681.0488,-122 2681.0488,-86 2786.9512,-86 2786.9512,-122"/>
<text text-anchor="middle" x="2734" y="-99.8" font-family="Times,serif" font-size="14.00" fill="#000000">CityComponent</text>
</g>
<!-- CityComponent&#45;&gt;AppModule -->
<g id="edge8" class="edge">
<title>CityComponent&#45;&gt;AppModule</title>
<path fill="none" stroke="#000000" d="M2734,-122.1686C2734,-141.0898 2734,-168 2734,-168 2734,-168 1957.9131,-168 1957.9131,-168"/>
<polygon fill="#000000" stroke="#000000" points="1957.9131,-164.5001 1947.9131,-168 1957.9131,-171.5001 1957.9131,-164.5001"/>
</g>
<!-- CityViewComponent -->
<g id="node8" class="node">
<title>CityViewComponent</title>
<polygon fill="#ffffb3" stroke="#000000" points="2662.7688,-122 2527.2312,-122 2527.2312,-86 2662.7688,-86 2662.7688,-122"/>
<text text-anchor="middle" x="2595" y="-99.8" font-family="Times,serif" font-size="14.00" fill="#000000">CityViewComponent</text>
</g>
<!-- CityViewComponent&#45;&gt;AppModule -->
<g id="edge9" class="edge">
<title>CityViewComponent&#45;&gt;AppModule</title>
<path fill="none" stroke="#000000" d="M2595,-122.2667C2595,-140.5552 2595,-166 2595,-166 2595,-166 1957.8053,-166 1957.8053,-166"/>
<polygon fill="#000000" stroke="#000000" points="1957.8053,-162.5001 1947.8053,-166 1957.8053,-169.5001 1957.8053,-162.5001"/>
</g>
<!-- EditComponent -->
<g id="node9" class="node">
<title>EditComponent</title>
<polygon fill="#ffffb3" stroke="#000000" points="2509.1667,-122 2404.8333,-122 2404.8333,-86 2509.1667,-86 2509.1667,-122"/>
<text text-anchor="middle" x="2457" y="-99.8" font-family="Times,serif" font-size="14.00" fill="#000000">EditComponent</text>
</g>
<!-- EditComponent&#45;&gt;AppModule -->
<g id="edge10" class="edge">
<title>EditComponent&#45;&gt;AppModule</title>
<path fill="none" stroke="#000000" d="M2457,-122.0225C2457,-139.3734 2457,-163 2457,-163 2457,-163 1957.8668,-163 1957.8668,-163"/>
<polygon fill="#000000" stroke="#000000" points="1957.8668,-159.5001 1947.8668,-163 1957.8668,-166.5001 1957.8668,-159.5001"/>
</g>
<!-- FilterComponent -->
<g id="node10" class="node">
<title>FilterComponent</title>
<polygon fill="#ffffb3" stroke="#000000" points="2386.6625,-122 2275.3375,-122 2275.3375,-86 2386.6625,-86 2386.6625,-122"/>
<text text-anchor="middle" x="2331" y="-99.8" font-family="Times,serif" font-size="14.00" fill="#000000">FilterComponent</text>
</g>
<!-- FilterComponent&#45;&gt;AppModule -->
<g id="edge11" class="edge">
<title>FilterComponent&#45;&gt;AppModule</title>
<path fill="none" stroke="#000000" d="M2349.6103,-122.0352C2349.6103,-138.7344 2349.6103,-161 2349.6103,-161 2349.6103,-161 1957.7338,-161 1957.7338,-161"/>
<polygon fill="#000000" stroke="#000000" points="1957.7338,-157.5001 1947.7338,-161 1957.7337,-164.5001 1957.7338,-157.5001"/>
</g>
<!-- FilterComponent&#45;&gt;AppModule -->
<g id="edge12" class="edge">
<title>FilterComponent&#45;&gt;AppModule</title>
<path fill="none" stroke="#000000" d="M2312.3897,-122.0091C2312.3897,-138.0494 2312.3897,-159 2312.3897,-159 2312.3897,-159 1957.9602,-159 1957.9602,-159"/>
<polygon fill="#000000" stroke="#000000" points="1957.9602,-155.5001 1947.9602,-159 1957.9601,-162.5001 1957.9602,-155.5001"/>
</g>
<!-- FlightListComponent -->
<g id="node11" class="node">
<title>FlightListComponent</title>
<polygon fill="#ffffb3" stroke="#000000" points="2257.0659,-122 2120.9341,-122 2120.9341,-86 2257.0659,-86 2257.0659,-122"/>
<text text-anchor="middle" x="2189" y="-99.8" font-family="Times,serif" font-size="14.00" fill="#000000">FlightListComponent</text>
</g>
<!-- FlightListComponent&#45;&gt;AppModule -->
<g id="edge13" class="edge">
<title>FlightListComponent&#45;&gt;AppModule</title>
<path fill="none" stroke="#000000" d="M2189,-122.1871C2189,-137.1824 2189,-156 2189,-156 2189,-156 1957.7576,-156 1957.7576,-156"/>
<polygon fill="#000000" stroke="#000000" points="1957.7577,-152.5001 1947.7576,-156 1957.7576,-159.5001 1957.7577,-152.5001"/>
</g>
<!-- FooterComponent -->
<g id="node12" class="node">
<title>FooterComponent</title>
<polygon fill="#ffffb3" stroke="#000000" points="2102.8809,-122 1985.1191,-122 1985.1191,-86 2102.8809,-86 2102.8809,-122"/>
<text text-anchor="middle" x="2044" y="-99.8" font-family="Times,serif" font-size="14.00" fill="#000000">FooterComponent</text>
</g>
<!-- FooterComponent&#45;&gt;AppModule -->
<g id="edge14" class="edge">
<title>FooterComponent&#45;&gt;AppModule</title>
<path fill="none" stroke="#000000" d="M2044,-122.0511C2044,-136.373 2044,-154 2044,-154 2044,-154 1957.779,-154 1957.779,-154"/>
<polygon fill="#000000" stroke="#000000" points="1957.7791,-150.5001 1947.779,-154 1957.779,-157.5001 1957.7791,-150.5001"/>
</g>
<!-- HeaderComponent -->
<g id="node13" class="node">
<title>HeaderComponent</title>
<polygon fill="#ffffb3" stroke="#000000" points="1966.7437,-122 1845.2563,-122 1845.2563,-86 1966.7437,-86 1966.7437,-122"/>
<text text-anchor="middle" x="1906" y="-99.8" font-family="Times,serif" font-size="14.00" fill="#000000">HeaderComponent</text>
</g>
<!-- HeaderComponent&#45;&gt;AppModule -->
<g id="edge15" class="edge">
<title>HeaderComponent&#45;&gt;AppModule</title>
<path fill="none" stroke="#000000" d="M1906,-122.1061C1906,-122.1061 1906,-140.991 1906,-140.991"/>
<polygon fill="#000000" stroke="#000000" points="1902.5001,-140.9909 1906,-150.991 1909.5001,-140.991 1902.5001,-140.9909"/>
</g>
<!-- LoginComponent -->
<g id="node14" class="node">
<title>LoginComponent</title>
<polygon fill="#ffffb3" stroke="#000000" points="1827.2758,-122 1712.7242,-122 1712.7242,-86 1827.2758,-86 1827.2758,-122"/>
<text text-anchor="middle" x="1770" y="-99.8" font-family="Times,serif" font-size="14.00" fill="#000000">LoginComponent</text>
</g>
<!-- LoginComponent&#45;&gt;AppModule -->
<g id="edge16" class="edge">
<title>LoginComponent&#45;&gt;AppModule</title>
<path fill="none" stroke="#000000" d="M1770,-122.0511C1770,-136.373 1770,-154 1770,-154 1770,-154 1854.0858,-154 1854.0858,-154"/>
<polygon fill="#000000" stroke="#000000" points="1854.0858,-157.5001 1864.0858,-154 1854.0858,-150.5001 1854.0858,-157.5001"/>
</g>
<!-- PassengerDetailsComponent -->
<g id="node15" class="node">
<title>PassengerDetailsComponent</title>
<polygon fill="#ffffb3" stroke="#000000" points="1694.4608,-122 1517.5392,-122 1517.5392,-86 1694.4608,-86 1694.4608,-122"/>
<text text-anchor="middle" x="1606" y="-99.8" font-family="Times,serif" font-size="14.00" fill="#000000">PassengerDetailsComponent</text>
</g>
<!-- PassengerDetailsComponent&#45;&gt;AppModule -->
<g id="edge17" class="edge">
<title>PassengerDetailsComponent&#45;&gt;AppModule</title>
<path fill="none" stroke="#000000" d="M1606,-122.1871C1606,-137.1824 1606,-156 1606,-156 1606,-156 1854.2863,-156 1854.2863,-156"/>
<polygon fill="#000000" stroke="#000000" points="1854.2863,-159.5001 1864.2863,-156 1854.2863,-152.5001 1854.2863,-159.5001"/>
</g>
<!-- ProfileComponent -->
<g id="node16" class="node">
<title>ProfileComponent</title>
<polygon fill="#ffffb3" stroke="#000000" points="1499.9328,-122 1380.0672,-122 1380.0672,-86 1499.9328,-86 1499.9328,-122"/>
<text text-anchor="middle" x="1440" y="-99.8" font-family="Times,serif" font-size="14.00" fill="#000000">ProfileComponent</text>
</g>
<!-- ProfileComponent&#45;&gt;AppModule -->
<g id="edge18" class="edge">
<title>ProfileComponent&#45;&gt;AppModule</title>
<path fill="none" stroke="#000000" d="M1440,-122.0091C1440,-138.0494 1440,-159 1440,-159 1440,-159 1854.2355,-159 1854.2355,-159"/>
<polygon fill="#000000" stroke="#000000" points="1854.2355,-162.5001 1864.2355,-159 1854.2355,-155.5001 1854.2355,-162.5001"/>
</g>
<!-- RegistrationComponent -->
<g id="node17" class="node">
<title>RegistrationComponent</title>
<polygon fill="#ffffb3" stroke="#000000" points="1361.766,-122 1212.234,-122 1212.234,-86 1361.766,-86 1361.766,-122"/>
<text text-anchor="middle" x="1287" y="-99.8" font-family="Times,serif" font-size="14.00" fill="#000000">RegistrationComponent</text>
</g>
<!-- RegistrationComponent&#45;&gt;AppModule -->
<g id="edge19" class="edge">
<title>RegistrationComponent&#45;&gt;AppModule</title>
<path fill="none" stroke="#000000" d="M1311.961,-122.0352C1311.961,-138.7344 1311.961,-161 1311.961,-161 1311.961,-161 1854.2283,-161 1854.2283,-161"/>
<polygon fill="#000000" stroke="#000000" points="1854.2284,-164.5001 1864.2283,-161 1854.2283,-157.5001 1854.2284,-164.5001"/>
</g>
<!-- RegistrationComponent&#45;&gt;AppModule -->
<g id="edge20" class="edge">
<title>RegistrationComponent&#45;&gt;AppModule</title>
<path fill="none" stroke="#000000" d="M1262.039,-122.0225C1262.039,-139.3734 1262.039,-163 1262.039,-163 1262.039,-163 1854.2441,-163 1854.2441,-163"/>
<polygon fill="#000000" stroke="#000000" points="1854.2441,-166.5001 1864.2441,-163 1854.2441,-159.5001 1854.2441,-166.5001"/>
</g>
<!-- ReviewBookingComponent -->
<g id="node18" class="node">
<title>ReviewBookingComponent</title>
<polygon fill="#ffffb3" stroke="#000000" points="1194.3229,-122 1021.6771,-122 1021.6771,-86 1194.3229,-86 1194.3229,-122"/>
<text text-anchor="middle" x="1108" y="-99.8" font-family="Times,serif" font-size="14.00" fill="#000000">ReviewBookingComponent</text>
</g>
<!-- ReviewBookingComponent&#45;&gt;AppModule -->
<g id="edge21" class="edge">
<title>ReviewBookingComponent&#45;&gt;AppModule</title>
<path fill="none" stroke="#000000" d="M1108,-122.2667C1108,-140.5552 1108,-166 1108,-166 1108,-166 1854.2196,-166 1854.2196,-166"/>
<polygon fill="#000000" stroke="#000000" points="1854.2196,-169.5001 1864.2196,-166 1854.2196,-162.5001 1854.2196,-169.5001"/>
</g>
<!-- RoundtripFooterComponent -->
<g id="node19" class="node">
<title>RoundtripFooterComponent</title>
<polygon fill="#ffffb3" stroke="#000000" points="1004.1595,-122 829.8405,-122 829.8405,-86 1004.1595,-86 1004.1595,-122"/>
<text text-anchor="middle" x="917" y="-99.8" font-family="Times,serif" font-size="14.00" fill="#000000">RoundtripFooterComponent</text>
</g>
<!-- RoundtripFooterComponent&#45;&gt;AppModule -->
<g id="edge22" class="edge">
<title>RoundtripFooterComponent&#45;&gt;AppModule</title>
<path fill="none" stroke="#000000" d="M917,-122.1686C917,-141.0898 917,-168 917,-168 917,-168 1854.1356,-168 1854.1356,-168"/>
<polygon fill="#000000" stroke="#000000" points="1854.1356,-171.5001 1864.1356,-168 1854.1356,-164.5001 1854.1356,-171.5001"/>
</g>
<!-- ScheduleComponent -->
<g id="node20" class="node">
<title>ScheduleComponent</title>
<polygon fill="#ffffb3" stroke="#000000" points="811.1499,-122 678.8501,-122 678.8501,-86 811.1499,-86 811.1499,-122"/>
<text text-anchor="middle" x="745" y="-99.8" font-family="Times,serif" font-size="14.00" fill="#000000">ScheduleComponent</text>
</g>
<!-- ScheduleComponent&#45;&gt;AppModule -->
<g id="edge23" class="edge">
<title>ScheduleComponent&#45;&gt;AppModule</title>
<path fill="none" stroke="#000000" d="M745,-122.308C745,-142.1455 745,-171 745,-171 745,-171 1854.3371,-171 1854.3371,-171"/>
<polygon fill="#000000" stroke="#000000" points="1854.3371,-174.5001 1864.3371,-171 1854.3371,-167.5001 1854.3371,-174.5001"/>
</g>
<!-- SearchFlightsComponent -->
<g id="node21" class="node">
<title>SearchFlightsComponent</title>
<polygon fill="#ffffb3" stroke="#000000" points="661.3187,-122 502.6813,-122 502.6813,-86 661.3187,-86 661.3187,-122"/>
<text text-anchor="middle" x="582" y="-99.8" font-family="Times,serif" font-size="14.00" fill="#000000">SearchFlightsComponent</text>
</g>
<!-- SearchFlightsComponent&#45;&gt;AppModule -->
<g id="edge24" class="edge">
<title>SearchFlightsComponent&#45;&gt;AppModule</title>
<path fill="none" stroke="#000000" d="M582,-122.1289C582,-142.5724 582,-173 582,-173 582,-173 1854.1886,-173 1854.1886,-173"/>
<polygon fill="#000000" stroke="#000000" points="1854.1886,-176.5001 1864.1886,-173 1854.1885,-169.5001 1854.1886,-176.5001"/>
</g>
<!-- SearchListComponent -->
<g id="node22" class="node">
<title>SearchListComponent</title>
<polygon fill="#ffffb3" stroke="#000000" points="484.6979,-122 343.3021,-122 343.3021,-86 484.6979,-86 484.6979,-122"/>
<text text-anchor="middle" x="414" y="-99.8" font-family="Times,serif" font-size="14.00" fill="#000000">SearchListComponent</text>
</g>
<!-- SearchListComponent&#45;&gt;AppModule -->
<g id="edge25" class="edge">
<title>SearchListComponent&#45;&gt;AppModule</title>
<path fill="none" stroke="#000000" d="M437.533,-122.2843C437.533,-143.3211 437.533,-175 437.533,-175 437.533,-175 1854.027,-175 1854.027,-175"/>
<polygon fill="#000000" stroke="#000000" points="1854.0271,-178.5001 1864.027,-175 1854.027,-171.5001 1854.0271,-178.5001"/>
</g>
<!-- SearchListComponent&#45;&gt;AppModule -->
<g id="edge26" class="edge">
<title>SearchListComponent&#45;&gt;AppModule</title>
<path fill="none" stroke="#000000" d="M390.467,-122.2921C390.467,-144.2057 390.467,-178 390.467,-178 390.467,-178 1854.2816,-178 1854.2816,-178"/>
<polygon fill="#000000" stroke="#000000" points="1854.2816,-181.5001 1864.2816,-178 1854.2815,-174.5001 1854.2816,-181.5001"/>
</g>
<!-- ViewProfileComponent -->
<g id="node23" class="node">
<title>ViewProfileComponent</title>
<polygon fill="#ffffb3" stroke="#000000" points="325.7506,-122 176.2494,-122 176.2494,-86 325.7506,-86 325.7506,-122"/>
<text text-anchor="middle" x="251" y="-99.8" font-family="Times,serif" font-size="14.00" fill="#000000">ViewProfileComponent</text>
</g>
<!-- ViewProfileComponent&#45;&gt;AppModule -->
<g id="edge27" class="edge">
<title>ViewProfileComponent&#45;&gt;AppModule</title>
<path fill="none" stroke="#000000" d="M226.0416,-122.3228C226.0416,-145.6602 226.0416,-183 226.0416,-183 226.0416,-183 1854.0536,-183 1854.0536,-183"/>
<polygon fill="#000000" stroke="#000000" points="1854.0536,-186.5001 1864.0536,-183 1854.0535,-179.5001 1854.0536,-186.5001"/>
</g>
<!-- ViewProfileComponent&#45;&gt;AppModule -->
<g id="edge28" class="edge">
<title>ViewProfileComponent&#45;&gt;AppModule</title>
<path fill="none" stroke="#000000" d="M275.9584,-122.0109C275.9584,-144.4852 275.9584,-180 275.9584,-180 275.9584,-180 1854.0686,-180 1854.0686,-180"/>
<polygon fill="#000000" stroke="#000000" points="1854.0686,-183.5001 1864.0686,-180 1854.0685,-176.5001 1854.0686,-183.5001"/>
</g>
<!-- AppComponent  -->
<g id="node26" class="node">
<title>AppComponent </title>
<polygon fill="#80b1d3" stroke="#000000" points="1960.439,-252 1851.561,-252 1851.561,-216 1960.439,-216 1960.439,-252"/>
<text text-anchor="middle" x="1906" y="-229.8" font-family="Times,serif" font-size="14.00" fill="#000000">AppComponent </text>
</g>
<!-- AppModule&#45;&gt;AppComponent  -->
<g id="edge30" class="edge">
<title>AppModule&#45;&gt;AppComponent </title>
<path fill="none" stroke="#000000" stroke-dasharray="1,5" d="M1906,-187.1061C1906,-187.1061 1906,-205.991 1906,-205.991"/>
<polygon fill="#000000" stroke="#000000" points="1902.5001,-205.9909 1906,-215.991 1909.5001,-205.991 1902.5001,-205.9909"/>
</g>
<!-- AppRoutingModule -->
<g id="node25" class="node">
<title>AppRoutingModule</title>
<polygon fill="#8dd3c7" stroke="#000000" points="152.2744,-122 149.2744,-126 128.2744,-126 125.2744,-122 23.7256,-122 23.7256,-86 152.2744,-86 152.2744,-122"/>
<text text-anchor="middle" x="88" y="-99.8" font-family="Times,serif" font-size="14.00" fill="#000000">AppRoutingModule</text>
</g>
<!-- AppRoutingModule&#45;&gt;AppModule -->
<g id="edge29" class="edge">
<title>AppRoutingModule&#45;&gt;AppModule</title>
<path fill="none" stroke="#000000" d="M88,-122.3802C88,-146.2785 88,-185 88,-185 88,-185 1854.1761,-185 1854.1761,-185"/>
<polygon fill="#000000" stroke="#000000" points="1854.1762,-188.5001 1864.1761,-185 1854.1761,-181.5001 1854.1762,-188.5001"/>
</g>
</g>
</svg>
